<?xml version="1.0" standalone="no"?>
<!DOCTYPE svg PUBLIC "-//W3C//DTD SVG 20010904//EN"
 "http://www.w3.org/TR/2001/REC-SVG-20010904/DTD/svg10.dtd">
<svg version="1.0" xmlns="http://www.w3.org/2000/svg"
 width="512.000000pt" height="512.000000pt" viewBox="0 0 512.000000 512.000000"
 preserveAspectRatio="xMidYMid meet">

<g transform="translate(0.000000,512.000000) scale(0.100000,-0.100000)"
fill="#ff5757" stroke="none">
<path d="M321 5104 c-212 -57 -350 -268 -314 -480 23 -131 37 -150 383 -499
l318 -320 -349 -1300 c-192 -715 -351 -1320 -355 -1345 -12 -93 53 -207 142
-248 27 -12 789 -221 1694 -464 1779 -477 1737 -468 1820 -424 48 25 98 74
120 116 10 19 71 233 135 475 65 242 121 444 126 449 4 5 207 62 450 127 244
65 456 124 473 131 44 18 104 75 129 122 45 86 43 98 -212 1041 l-232 860 20
82 c38 149 25 220 -54 298 -27 28 -58 55 -68 60 -14 8 -44 104 -121 395 -57
212 -110 401 -119 421 -37 89 -128 150 -227 152 -42 1 -235 -48 -825 -206
l-771 -207 -634 171 c-582 158 -642 172 -721 173 l-87 1 -178 175 c-187 183
-235 217 -339 245 -72 18 -133 18 -204 -1z m215 -184 c23 -10 89 -63 148 -121
l107 -103 -183 -183 -183 -183 -97 97 c-143 142 -177 222 -144 335 44 151 205
223 352 158z m3599 -360 c20 -22 205 -703 193 -708 -11 -5 -1480 387 -1490
397 -7 6 1130 316 1212 331 44 8 64 3 85 -20z m-3282 -292 l-183 -183 -60 60
-60 60 182 182 183 183 60 -60 60 -60 -182 -182z m2022 -209 c1429 -383 1602
-431 1623 -454 12 -15 22 -37 22 -50 0 -43 -881 -3319 -899 -3345 -10 -14 -29
-29 -43 -34 -19 -7 -389 89 -1674 433 -907 242 -1663 447 -1680 455 -67 31
-68 19 85 591 456 1709 535 2000 538 2005 2 2 252 -244 556 -547 l552 -551
295 -98 c298 -99 359 -111 407 -86 16 9 120 -16 520 -123 539 -145 543 -146
572 -91 19 35 10 86 -19 107 -14 11 -230 74 -495 145 -258 69 -472 129 -475
132 -3 4 -50 144 -105 312 l-99 305 -666 669 c-395 397 -655 665 -640 661 14
-5 745 -201 1625 -436z m-525 -934 c0 -5 -26 -35 -57 -67 l-58 -58 -375 375
c-388 387 -392 391 -443 363 -33 -17 -46 -39 -47 -77 0 -33 25 -60 372 -408
l373 -373 -60 -60 -60 -60 -603 603 -602 602 60 60 60 60 123 -122 c157 -155
179 -166 233 -119 21 18 28 32 28 60 0 34 -11 47 -132 169 l-132 132 62 63 63
62 597 -597 c329 -329 598 -602 598 -608z m2409 -848 c119 -447 191 -731 187
-744 -4 -11 -15 -28 -26 -38 -16 -15 -819 -239 -827 -231 -5 4 461 1736 467
1736 3 0 92 -326 199 -723z m-2245 469 c36 -110 64 -202 61 -204 -4 -4 -405
126 -415 135 -2 2 59 66 135 143 77 77 142 136 146 132 4 -4 36 -97 73 -206z"/>
<path d="M2692 3600 c-31 -13 -55 -71 -42 -104 5 -14 19 -32 32 -40 13 -8 303
-90 645 -181 573 -154 624 -166 649 -153 54 25 67 83 31 132 -10 14 -173 61
-643 187 -346 93 -633 169 -639 168 -5 0 -20 -4 -33 -9z"/>
<path d="M2929 2981 c-43 -43 -34 -106 18 -130 41 -19 842 -231 872 -231 62 0
100 95 55 140 -13 14 -147 54 -449 135 -237 63 -438 115 -448 115 -10 0 -32
-13 -48 -29z"/>
<path d="M875 2496 c-57 -25 -67 -111 -17 -142 24 -16 276 -84 308 -84 52 0
89 69 68 125 -11 28 -45 40 -314 110 -8 2 -29 -2 -45 -9z"/>
<path d="M1600 2280 c-45 -45 -28 -119 32 -139 92 -30 1904 -511 1925 -511 36
0 73 42 73 83 0 40 -26 71 -72 86 -134 42 -1875 501 -1903 501 -22 0 -43 -8
-55 -20z"/>
<path d="M724 1986 c-35 -29 -39 -86 -8 -117 23 -22 256 -89 312 -89 83 0 112
112 40 151 -29 15 -266 79 -295 79 -12 0 -34 -11 -49 -24z"/>
<path d="M1469 1797 c-42 -32 -47 -97 -11 -130 18 -16 1906 -527 1954 -529 94
-3 119 126 31 160 -58 23 -1903 512 -1930 512 -15 0 -35 -6 -44 -13z"/>
</g>
</svg>
